EVENT: startup
     : startup=True
.
test time :: (new)
.
name: test time
mode: time
value: None
.
EVENT: wait¦start¦0.2¦_wait¦1
     : loglevel=0
EVENT: wait¦start¦_wait¦1
     : loglevel=0
     : end_time=0.2
TRACE 2003-04-05 06:07:08.250000 _wait¦1: Fake timer done
EVENT: wait¦done¦0.2¦_wait¦1
     : loglevel=0
EVENT: wait¦done¦_wait¦1
     : loglevel=0
name: test time
mode: time
value: 2.0
set time: now (2003-04-05 06:07:08.25)
prev value: None
total time: 0:00:00
total samples: 1
current average: 2.0
.
EVENT: wait¦start¦1.2¦_wait¦2
     : loglevel=0
EVENT: wait¦start¦_wait¦2
     : loglevel=0
     : end_time=1.2
TRACE 2003-04-05 06:07:09.250000 _wait¦2: Fake timer done
EVENT: wait¦done¦1.2¦_wait¦2
     : loglevel=0
EVENT: wait¦done¦_wait¦2
     : loglevel=0
name: test time
mode: time
value: 2.0
set time: -1.0 sec (2003-04-05 06:07:08.25)
prev value: None
total time: 0:00:00
total samples: 1
current average: 2.0
.
name: test time
mode: time
value: 5.0
set time: now (2003-04-05 06:07:09.25)
prev value: 2.0
total time: 0:00:01
total samples: 2
current average: 2.0
.
EVENT: wait¦start¦2.2¦_wait¦3
     : loglevel=0
EVENT: wait¦start¦_wait¦3
     : loglevel=0
     : end_time=2.2
TRACE 2003-04-05 06:07:10.250000 _wait¦3: Fake timer done
EVENT: wait¦done¦2.2¦_wait¦3
     : loglevel=0
EVENT: wait¦done¦_wait¦3
     : loglevel=0
name: test time
mode: time
value: 5.0
set time: -1.0 sec (2003-04-05 06:07:09.25)
prev value: 2.0
total time: 0:00:01
total samples: 2
current average: 3.5
.
name: test time
mode: time
value: 0.0
set time: now (2003-04-05 06:07:10.25)
prev value: 5.0
total time: 0:00:02
total samples: 3
current average: 3.5
.
TRACE Yes
TRACE Yes
EVENT: wait¦start¦4.2¦_wait¦4
     : loglevel=0
EVENT: wait¦start¦_wait¦4
     : loglevel=0
     : end_time=4.2
TRACE 2003-04-05 06:07:12.250000 _wait¦4: Fake timer done
EVENT: wait¦done¦4.2¦_wait¦4
     : loglevel=0
EVENT: wait¦done¦_wait¦4
     : loglevel=0
TRACE Yes
DEBUG values now 0.0 prev 5.0
test moving :: (new)
.
name: test moving
mode: moving
value: None
samples: 0
max samples: 3
.
EVENT: wait¦start¦4.5¦_wait¦5
     : loglevel=0
EVENT: wait¦start¦_wait¦5
     : loglevel=0
     : end_time=4.5
TRACE 2003-04-05 06:07:12.500000 _wait¦5: Fake timer done
EVENT: wait¦done¦4.5¦_wait¦5
     : loglevel=0
EVENT: wait¦done¦_wait¦5
     : loglevel=0
name: test moving
mode: moving
value: 2.0
set time: now (2003-04-05 06:07:12.50)
prev value: None
total time: None
total samples: 1
current average: 2.0
samples: 1
max samples: 3
sample 0: 2.0
.
EVENT: wait¦start¦5.5¦_wait¦6
     : loglevel=0
EVENT: wait¦start¦_wait¦6
     : loglevel=0
     : end_time=5.5
TRACE 2003-04-05 06:07:13.500000 _wait¦6: Fake timer done
EVENT: wait¦done¦5.5¦_wait¦6
     : loglevel=0
EVENT: wait¦done¦_wait¦6
     : loglevel=0
name: test moving
mode: moving
value: 2.0
set time: -1.0 sec (2003-04-05 06:07:12.50)
prev value: None
total time: None
total samples: 1
current average: 2.0
samples: 1
max samples: 3
sample 0: 2.0
.
name: test moving
mode: moving
value: 5.0
set time: now (2003-04-05 06:07:13.50)
prev value: 2.0
total time: None
total samples: 2
current average: 3.5
samples: 2
max samples: 3
sample 0: 2.0
sample 1: 5.0
.
EVENT: wait¦start¦7.5¦_wait¦7
     : loglevel=0
EVENT: wait¦start¦_wait¦7
     : loglevel=0
     : end_time=7.5
TRACE 2003-04-05 06:07:15.500000 _wait¦7: Fake timer done
EVENT: wait¦done¦7.5¦_wait¦7
     : loglevel=0
EVENT: wait¦done¦_wait¦7
     : loglevel=0
name: test moving
mode: moving
value: 5.0
set time: -2.0 sec (2003-04-05 06:07:13.50)
prev value: 2.0
total time: None
total samples: 2
current average: 3.5
samples: 2
max samples: 3
sample 0: 2.0
sample 1: 5.0
.
name: test moving
mode: moving
value: -1.0
set time: now (2003-04-05 06:07:15.50)
prev value: 5.0
total time: None
total samples: 3
current average: 2.0
samples: 3
max samples: 3
sample 0: 2.0
sample 1: 5.0
sample 2: -1.0
.
EVENT: wait¦start¦11.5¦_wait¦8
     : loglevel=0
EVENT: wait¦start¦_wait¦8
     : loglevel=0
     : end_time=11.5
TRACE 2003-04-05 06:07:19.500000 _wait¦8: Fake timer done
EVENT: wait¦done¦11.5¦_wait¦8
     : loglevel=0
EVENT: wait¦done¦_wait¦8
     : loglevel=0
name: test moving
mode: moving
value: -1.0
set time: -4.0 sec (2003-04-05 06:07:15.50)
prev value: 5.0
total time: None
total samples: 3
current average: 2.0
samples: 3
max samples: 3
sample 0: 2.0
sample 1: 5.0
sample 2: -1.0
.
name: test moving
mode: moving
value: 8.0
set time: now (2003-04-05 06:07:19.50)
prev value: -1.0
total time: None
total samples: 4
current average: 4.0
samples: 3
max samples: 3
sample 0: 5.0
sample 1: -1.0
sample 2: 8.0
.
EVENT: wait¦start¦15.5¦_wait¦9
     : loglevel=0
EVENT: wait¦start¦_wait¦9
     : loglevel=0
     : end_time=15.5
TRACE 2003-04-05 06:07:23.500000 _wait¦9: Fake timer done
EVENT: wait¦done¦15.5¦_wait¦9
     : loglevel=0
EVENT: wait¦done¦_wait¦9
     : loglevel=0
name: test moving
mode: moving
value: 8.0
set time: -4.0 sec (2003-04-05 06:07:19.50)
prev value: -1.0
total time: None
total samples: 4
current average: 4.0
samples: 3
max samples: 3
sample 0: 5.0
sample 1: -1.0
sample 2: 8.0
.
name: test moving
mode: moving
value: 14.0
set time: now (2003-04-05 06:07:23.50)
prev value: 8.0
total time: None
total samples: 5
current average: 7.0
samples: 3
max samples: 3
sample 0: -1.0
sample 1: 8.0
sample 2: 14.0
.
TRACE Yes
TRACE Yes
EVENT: wait¦start¦17.5¦_wait¦10
     : loglevel=0
EVENT: wait¦start¦_wait¦10
     : loglevel=0
     : end_time=17.5
TRACE 2003-04-05 06:07:25.500000 _wait¦10: Fake timer done
EVENT: wait¦done¦17.5¦_wait¦10
     : loglevel=0
EVENT: wait¦done¦_wait¦10
     : loglevel=0
TRACE Yes
DEBUG values now 14.0 prev 8.0
test decay :: (new)
.
name: test decay
mode: decay
value: None
weight: 0.1
.
EVENT: wait¦start¦17.7¦_wait¦11
     : loglevel=0
EVENT: wait¦start¦_wait¦11
     : loglevel=0
     : end_time=17.7
TRACE 2003-04-05 06:07:25.750000 _wait¦11: Fake timer done
EVENT: wait¦done¦17.8¦_wait¦11
     : loglevel=0
EVENT: wait¦done¦_wait¦11
     : loglevel=0
name: test decay
mode: decay
value: 2.0
set time: now (2003-04-05 06:07:25.75)
prev value: None
total time: None
total samples: 1
current average: 2.0
weight: 0.1
.
EVENT: wait¦start¦18.8¦_wait¦12
     : loglevel=0
EVENT: wait¦start¦_wait¦12
     : loglevel=0
     : end_time=18.8
TRACE 2003-04-05 06:07:26.750000 _wait¦12: Fake timer done
EVENT: wait¦done¦18.8¦_wait¦12
     : loglevel=0
EVENT: wait¦done¦_wait¦12
     : loglevel=0
name: test decay
mode: decay
value: 2.0
set time: -1.0 sec (2003-04-05 06:07:25.75)
prev value: None
total time: None
total samples: 1
current average: 2.0
weight: 0.1
.
name: test decay
mode: decay
value: 22.0
set time: now (2003-04-05 06:07:26.75)
prev value: 2.0
total time: None
total samples: 2
current average: 4.0
weight: 0.1
.
EVENT: wait¦start¦19.8¦_wait¦13
     : loglevel=0
EVENT: wait¦start¦_wait¦13
     : loglevel=0
     : end_time=19.8
TRACE 2003-04-05 06:07:27.750000 _wait¦13: Fake timer done
EVENT: wait¦done¦19.8¦_wait¦13
     : loglevel=0
EVENT: wait¦done¦_wait¦13
     : loglevel=0
name: test decay
mode: decay
value: 22.0
set time: -1.0 sec (2003-04-05 06:07:26.75)
prev value: 2.0
total time: None
total samples: 2
current average: 4.0
weight: 0.1
.
name: test decay
mode: decay
value: -1.0
set time: now (2003-04-05 06:07:27.75)
prev value: 22.0
total time: None
total samples: 3
current average: 3.5
weight: 0.1
.
TRACE Yes
TRACE Yes
EVENT: wait¦start¦21.8¦_wait¦14
     : loglevel=0
EVENT: wait¦start¦_wait¦14
     : loglevel=0
     : end_time=21.8
TRACE 2003-04-05 06:07:29.750000 _wait¦14: Fake timer done
EVENT: wait¦done¦21.8¦_wait¦14
     : loglevel=0
EVENT: wait¦done¦_wait¦14
     : loglevel=0
TRACE Yes
DEBUG values now -1.0 prev 22.0
test decaytime :: (new)
.
name: test decaytime
mode: decaytime
value: None
weight: 0.1
time base: 1.0 sec
weight/hour: 1.0
weight/minute: 0.9982029897
weight/second: 0.1
.
EVENT: wait¦start¦22.0¦_wait¦15
     : loglevel=0
EVENT: wait¦start¦_wait¦15
     : loglevel=0
     : end_time=22.0
TRACE 2003-04-05 06:07:30 _wait¦15: Fake timer done
EVENT: wait¦done¦22.0¦_wait¦15
     : loglevel=0
EVENT: wait¦done¦_wait¦15
     : loglevel=0
name: test decaytime
mode: decaytime
value: 10.0
set time: now (2003-04-05 06:07:30)
prev value: None
total time: 0:00:00
total samples: 1
current average: 10.0
weight: 0.1
time base: 1.0 sec
weight/hour: 1.0
weight/minute: 0.9982029897
weight/second: 0.1
.
EVENT: wait¦start¦23.0¦_wait¦16
     : loglevel=0
EVENT: wait¦start¦_wait¦16
     : loglevel=0
     : end_time=23.0
TRACE 2003-04-05 06:07:31 _wait¦16: Fake timer done
EVENT: wait¦done¦23.0¦_wait¦16
     : loglevel=0
EVENT: wait¦done¦_wait¦16
     : loglevel=0
name: test decaytime
mode: decaytime
value: 10.0
set time: -1.0 sec (2003-04-05 06:07:30)
prev value: None
total time: 0:00:00
total samples: 1
current average: 10.0
weight: 0.1
time base: 1.0 sec
weight/hour: 1.0
weight/minute: 0.9982029897
weight/second: 0.1
.
name: test decaytime
mode: decaytime
value: 110.0
set time: now (2003-04-05 06:07:31)
prev value: 10.0
total time: 0:00:00
total samples: 2
current average: 10.0
weight: 0.1
time base: 1.0 sec
weight/hour: 1.0
weight/minute: 0.9982029897
weight/second: 0.1
.
EVENT: wait¦start¦24.0¦_wait¦17
     : loglevel=0
EVENT: wait¦start¦_wait¦17
     : loglevel=0
     : end_time=24.0
TRACE 2003-04-05 06:07:32 _wait¦17: Fake timer done
EVENT: wait¦done¦24.0¦_wait¦17
     : loglevel=0
EVENT: wait¦done¦_wait¦17
     : loglevel=0
name: test decaytime
mode: decaytime
value: 110.0
set time: -1.0 sec (2003-04-05 06:07:31)
prev value: 10.0
total time: 0:00:00
total samples: 2
current average: 20.0
weight: 0.1
time base: 1.0 sec
weight/hour: 1.0
weight/minute: 0.9982029897
weight/second: 0.1
.
name: test decaytime
mode: decaytime
value: 1.0
set time: now (2003-04-05 06:07:32)
prev value: 110.0
total time: 0:00:00
total samples: 3
current average: 20.0
weight: 0.1
time base: 1.0 sec
weight/hour: 1.0
weight/minute: 0.9982029897
weight/second: 0.1
.
TRACE Yes
TRACE Yes
EVENT: wait¦start¦26.0¦_wait¦18
     : loglevel=0
EVENT: wait¦start¦_wait¦18
     : loglevel=0
     : end_time=26.0
TRACE 2003-04-05 06:07:34 _wait¦18: Fake timer done
EVENT: wait¦done¦26.0¦_wait¦18
     : loglevel=0
EVENT: wait¦done¦_wait¦18
     : loglevel=0
name: test decaytime
mode: decaytime
value: 1.0
set time: -2.0 sec (2003-04-05 06:07:32)
prev value: 110.0
total time: 0:00:00
total samples: 3
current average: 16.39
weight: 0.1
time base: 1.0 sec
weight/hour: 1.0
weight/minute: 0.9982029897
weight/second: 0.1
.
DEBUG values avg 16.39 now 1.0 prev 110.0
TRACE Yes
.
